<svg width="150" height="161" viewBox="0 0 150 161" fill="none" xmlns="http://www.w3.org/2000/svg">
<path d="M131.244 51.6499C131.244 53.1408 132.623 54.3178 134.37 54.3178C136.117 54.3178 137.496 53.1408 137.496 51.6499C137.496 47.2166 141.679 43.6463 146.874 43.6463C148.621 43.6463 150 42.4694 150 40.9785C150 39.4876 148.621 38.3106 146.874 38.3106C141.679 38.3106 137.496 34.7404 137.496 30.307C137.496 28.8162 136.117 27.6392 134.37 27.6392C132.623 27.6392 131.244 28.8162 131.244 30.307C131.244 34.7404 127.061 38.3106 121.866 38.3106C120.119 38.3106 118.74 39.4876 118.74 40.9785C118.74 42.4694 120.119 43.6463 121.866 43.6463C127.015 43.6856 131.198 47.2558 131.244 51.6499ZM134.324 38.2322C135.243 39.2915 136.301 40.1938 137.542 40.9785C136.301 41.7632 135.243 42.6655 134.324 43.7248C133.405 42.6655 132.347 41.7632 131.106 40.9785C132.347 40.2331 133.451 39.2915 134.324 38.2322Z" fill="url(#paint0_linear_121_4824)"/>
<path d="M28.1336 27.6783C22.939 27.6783 18.7557 24.1081 18.7557 19.6747C18.7557 18.1838 17.3766 17.0068 15.6298 17.0068C13.8829 17.0068 12.5038 18.1838 12.5038 19.6747C12.5038 24.0688 8.32056 27.6783 3.12595 27.6783C1.3791 27.6783 0 28.8553 0 30.3462C0 31.837 1.3791 33.014 3.12595 33.014C8.32056 33.014 12.5038 36.5843 12.5038 41.0176C12.5038 42.5085 13.8829 43.6855 15.6298 43.6855C17.3766 43.6855 18.7557 42.5085 18.7557 41.0176C18.7557 36.5843 22.939 33.014 28.1336 33.014C29.8804 33.014 31.2595 31.837 31.2595 30.3462C31.2595 28.8553 29.8345 27.6783 28.1336 27.6783ZM15.6298 33.0925C14.7104 32.0332 13.6531 31.1308 12.4119 30.3462C13.6531 29.5615 14.7104 28.6591 15.6298 27.5998C16.5492 28.6591 17.6065 29.5615 18.8477 30.3462C17.6065 31.1308 16.5492 32.0332 15.6298 33.0925Z" fill="url(#paint1_linear_121_4824)"/>
<path d="M74.9775 64.9892H83.8957L75.0235 120.622C74.7936 122.074 75.9889 123.408 77.6897 123.643C77.8276 123.643 77.9656 123.682 78.1035 123.682C79.6664 123.682 80.9996 122.701 81.1835 121.367L90.5613 62.6745C90.7912 61.2228 89.5959 59.8889 87.8951 59.6535C87.7571 59.6535 87.6192 59.6143 87.4813 59.6143H74.9775C73.2307 59.6143 71.8516 60.7913 71.8516 62.2821C71.8516 63.8122 73.2766 64.9892 74.9775 64.9892Z" fill="url(#paint2_linear_121_4824)"/>
<path d="M19.4001 60.6736C18.8025 61.3013 18.5727 62.1645 18.8025 62.9491L31.3063 108.264C31.6281 109.48 32.9153 110.304 34.3404 110.304H55.8083L61.8763 139.65H49.9701C48.2233 139.65 46.8442 140.827 46.8442 142.318V158.325C46.8442 159.777 48.2233 160.993 49.9701 160.993H99.9394C101.686 160.993 103.065 159.816 103.065 158.325V142.318C103.065 140.827 101.686 139.65 99.9394 139.65H88.0332L94.1012 110.304H115.569C117.04 110.304 118.281 109.441 118.603 108.264L131.107 62.9491C131.521 61.4975 130.463 60.0851 128.763 59.732C128.533 59.6928 128.303 59.6535 128.027 59.6535H104.536L106.099 52.1207C106.421 50.6691 105.272 49.296 103.571 49.0213C103.387 48.9821 103.203 48.9821 103.019 48.9821H96.078L91.0672 33.9557L105.042 24.3828C106.375 23.4412 106.605 21.7934 105.548 20.6164C104.95 19.9887 104.077 19.6356 103.111 19.6356H83.5741L78.0118 2.92218C77.644 1.82365 76.5408 1.07822 75.2076 0.999751C73.8745 0.921284 72.6333 1.54902 72.1276 2.60832L63.5772 19.6748H46.8902C45.1433 19.6748 43.7642 20.8518 43.7642 22.3427C43.7642 23.1666 44.1779 23.912 44.9134 24.422L58.9343 33.9557L53.9235 48.9821H46.8902C45.1433 48.9821 43.7642 50.1591 43.7642 51.6499C43.7642 51.8069 43.7642 51.9638 43.8102 52.1207L45.3731 59.6535H21.8825C20.9171 59.6535 19.9977 60.0459 19.4001 60.6736ZM52.4985 94.3358H46.2466L41.3738 75.6607H48.637L52.4985 94.3358ZM96.8594 155.657H53.0961V144.986H96.8594V155.657ZM101.319 75.6607H108.582L103.709 94.3358H97.4571L101.319 75.6607ZM124.166 64.9893L113.133 104.968H95.2505L96.3538 99.6323H106.237C107.708 99.6323 108.95 98.7691 109.271 97.5529L115.523 73.5421C115.891 72.0905 114.834 70.6781 113.133 70.3642C112.903 70.325 112.673 70.2858 112.443 70.2858H102.376L103.479 64.95H124.166V64.9893ZM55.7623 25.0105H65.5999C66.8411 25.0105 67.9903 24.3828 68.45 23.402L74.3802 11.632L78.1957 23.0881C78.5634 24.2259 79.8046 25.0105 81.1837 25.0105H94.1472L85.4589 30.9348C84.4935 31.6017 84.0798 32.7003 84.4016 33.7596L88.309 45.4511L76.6327 38.8207C75.5754 38.2322 74.1963 38.2322 73.1849 38.8207L61.6005 45.4119L65.508 33.7203C65.8298 32.7003 65.416 31.5625 64.4507 30.8955L55.7623 25.0105ZM74.9778 44.1956L83.3903 48.9821H66.5193L74.9778 44.1956ZM99.3878 54.3178L81.7353 139.65H68.2202L50.5677 54.3178H99.3878ZM46.4305 64.9893L47.5337 70.325H37.5123C35.7654 70.325 34.3863 71.502 34.3863 72.9929C34.3863 73.189 34.4323 73.3852 34.4783 73.5814L40.7302 97.5921C41.052 98.8084 42.3391 99.6715 43.7642 99.6715H53.6477L54.751 105.007H36.8227L25.79 65.0285H46.4305V64.9893Z" fill="url(#paint3_linear_121_4824)"/>
<defs>
<linearGradient id="paint0_linear_121_4824" x1="-24.2638" y1="41.0004" x2="173.928" y2="41.0004" gradientUnits="userSpaceOnUse">
<stop stop-color="#F9A86D"/>
<stop offset="0.503" stop-color="#F05361"/>
<stop offset="1" stop-color="#B72563"/>
</linearGradient>
<linearGradient id="paint1_linear_121_4824" x1="-24.2637" y1="30.3345" x2="173.928" y2="30.3345" gradientUnits="userSpaceOnUse">
<stop stop-color="#F9A86D"/>
<stop offset="0.503" stop-color="#F05361"/>
<stop offset="1" stop-color="#B72563"/>
</linearGradient>
<linearGradient id="paint2_linear_121_4824" x1="-24.2631" y1="91.6633" x2="173.929" y2="91.6633" gradientUnits="userSpaceOnUse">
<stop stop-color="#F9A86D"/>
<stop offset="0.503" stop-color="#F05361"/>
<stop offset="1" stop-color="#B72563"/>
</linearGradient>
<linearGradient id="paint3_linear_121_4824" x1="-24.2629" y1="80.996" x2="173.929" y2="80.996" gradientUnits="userSpaceOnUse">
<stop stop-color="#F9A86D"/>
<stop offset="0.503" stop-color="#F05361"/>
<stop offset="1" stop-color="#B72563"/>
</linearGradient>
</defs>
</svg>
